<svg xmlns="http://www.w3.org/2000/svg" xmlns:xlink="http://www.w3.org/1999/xlink" width="57.75" viewBox="0 0 57.75 30" height="30" version="1.0"><defs><g id="a"><path d="M 4.171875 -7.53125 C 4.671875 -8.351562 5.539062 -8.765625 6.78125 -8.765625 C 7.664062 -8.765625 8.285156 -8.546875 8.640625 -8.109375 C 8.804688 -7.910156 8.925781 -7.644531 9 -7.3125 C 9.082031 -6.976562 9.125 -6.535156 9.125 -5.984375 L 9.125 -1.53125 C 9.125 -1.082031 9.191406 -0.769531 9.328125 -0.59375 C 9.460938 -0.425781 9.703125 -0.34375 10.046875 -0.34375 L 10.046875 0 C 8.859375 -0.0390625 8.085938 -0.0625 7.734375 -0.0625 C 7.367188 -0.0625 6.59375 -0.0390625 5.40625 0 L 5.40625 -0.34375 C 5.6875 -0.34375 5.882812 -0.425781 6 -0.59375 C 6.113281 -0.769531 6.171875 -1.082031 6.171875 -1.53125 L 6.171875 -6.875 C 6.171875 -7.21875 6.101562 -7.472656 5.96875 -7.640625 C 5.84375 -7.816406 5.640625 -7.90625 5.359375 -7.90625 C 5.035156 -7.90625 4.753906 -7.789062 4.515625 -7.5625 C 4.285156 -7.34375 4.171875 -7.0625 4.171875 -6.71875 L 4.171875 -1.53125 C 4.171875 -1.082031 4.222656 -0.769531 4.328125 -0.59375 C 4.441406 -0.425781 4.644531 -0.34375 4.9375 -0.34375 L 4.9375 0 C 3.832031 -0.0390625 3.109375 -0.0625 2.765625 -0.0625 C 2.390625 -0.0625 1.566406 -0.0390625 0.296875 0 L 0.296875 -0.34375 C 0.640625 -0.34375 0.878906 -0.425781 1.015625 -0.59375 C 1.148438 -0.769531 1.21875 -1.082031 1.21875 -1.53125 L 1.21875 -10.875 C 1.21875 -11.382812 1.148438 -11.753906 1.015625 -11.984375 C 0.878906 -12.210938 0.640625 -12.328125 0.296875 -12.328125 L 0.296875 -12.671875 C 0.640625 -12.640625 0.976562 -12.625 1.3125 -12.625 C 2.457031 -12.625 3.410156 -12.703125 4.171875 -12.859375 Z M 4.171875 -7.53125"/></g><g id="b"><path d="M 5.46875 -1.5625 C 6.269531 -1.5625 6.9375 -1.925781 7.46875 -2.65625 L 7.734375 -2.5625 C 7.492188 -1.789062 7.085938 -1.128906 6.515625 -0.578125 C 5.941406 -0.0351562 5.207031 0.234375 4.3125 0.234375 C 3.15625 0.234375 2.234375 -0.117188 1.546875 -0.828125 C 0.859375 -1.546875 0.515625 -2.6875 0.515625 -4.25 C 0.515625 -5.757812 0.898438 -6.890625 1.671875 -7.640625 C 2.441406 -8.390625 3.460938 -8.765625 4.734375 -8.765625 C 6.804688 -8.765625 7.84375 -7.535156 7.84375 -5.078125 L 3.59375 -5.078125 C 3.582031 -4.941406 3.578125 -4.742188 3.578125 -4.484375 C 3.578125 -3.429688 3.757812 -2.679688 4.125 -2.234375 C 4.5 -1.785156 4.945312 -1.5625 5.46875 -1.5625 Z M 4.625 -8.390625 C 4.007812 -8.390625 3.644531 -7.390625 3.53125 -5.390625 L 5.4375 -5.390625 C 5.445312 -6.265625 5.382812 -6.984375 5.25 -7.546875 C 5.113281 -8.109375 4.90625 -8.390625 4.625 -8.390625 Z M 4.625 -8.390625"/></g><g id="c"><path d="M 7.359375 -8.46875 C 7.984375 -8.46875 8.40625 -8.488281 8.625 -8.53125 L 8.625 -8.1875 C 8.394531 -8.113281 8.179688 -7.953125 7.984375 -7.703125 C 7.796875 -7.460938 7.625 -7.09375 7.46875 -6.59375 L 5.40625 -0.484375 L 4.71875 1.515625 C 4.519531 2.078125 4.28125 2.472656 4 2.703125 C 3.65625 2.960938 3.144531 3.09375 2.46875 3.09375 C 1.914062 3.09375 1.40625 2.960938 0.9375 2.703125 C 0.46875 2.441406 0.234375 2.054688 0.234375 1.546875 C 0.234375 1.160156 0.378906 0.851562 0.671875 0.625 C 0.972656 0.394531 1.363281 0.28125 1.84375 0.28125 C 2.300781 0.28125 2.660156 0.382812 2.921875 0.59375 C 3.191406 0.800781 3.328125 1.101562 3.328125 1.5 C 3.328125 1.757812 3.234375 2.003906 3.046875 2.234375 C 2.867188 2.472656 2.601562 2.648438 2.25 2.765625 C 2.363281 2.785156 2.550781 2.796875 2.8125 2.796875 C 3.5625 2.796875 4.082031 2.359375 4.375 1.484375 L 4.453125 1.203125 L 0.625 -7.265625 C 0.457031 -7.640625 0.296875 -7.882812 0.140625 -8 C -0.015625 -8.125 -0.171875 -8.1875 -0.328125 -8.1875 L -0.328125 -8.53125 C 0.546875 -8.46875 1.4375 -8.4375 2.34375 -8.4375 C 3.0625 -8.4375 3.859375 -8.46875 4.734375 -8.53125 L 4.734375 -8.1875 C 4.410156 -8.1875 4.164062 -8.160156 4 -8.109375 C 3.832031 -8.066406 3.75 -7.972656 3.75 -7.828125 C 3.75 -7.734375 3.769531 -7.644531 3.8125 -7.5625 L 5.828125 -2.75 L 6.53125 -4.84375 C 6.738281 -5.476562 6.84375 -6.039062 6.84375 -6.53125 C 6.84375 -7.039062 6.734375 -7.4375 6.515625 -7.71875 C 6.296875 -8.007812 6.003906 -8.164062 5.640625 -8.1875 L 5.640625 -8.53125 C 6.046875 -8.488281 6.617188 -8.46875 7.359375 -8.46875 Z M 7.359375 -8.46875"/></g><g id="d"><path d="M 4.140625 -8.53125 L 5.75 -8.53125 L 5.75 -8.203125 L 4.140625 -8.203125 L 4.140625 -1.375 C 4.140625 -1.15625 4.175781 -1 4.25 -0.90625 C 4.332031 -0.820312 4.460938 -0.78125 4.640625 -0.78125 C 4.765625 -0.78125 4.910156 -0.816406 5.078125 -0.890625 C 5.242188 -0.972656 5.390625 -1.097656 5.515625 -1.265625 L 5.765625 -1.0625 C 5.265625 -0.195312 4.488281 0.234375 3.4375 0.234375 C 2.675781 0.234375 2.113281 0.046875 1.75 -0.328125 C 1.507812 -0.554688 1.351562 -0.835938 1.28125 -1.171875 C 1.21875 -1.515625 1.1875 -1.992188 1.1875 -2.609375 L 1.1875 -8.203125 L -0.0625 -8.203125 L -0.0625 -8.53125 L 1.1875 -8.53125 L 1.1875 -10.46875 C 1.78125 -10.46875 2.3125 -10.523438 2.78125 -10.640625 C 3.257812 -10.753906 3.710938 -10.9375 4.140625 -11.1875 Z M 4.140625 -8.53125"/></g><g id="e"><path d="M 2.484375 0.109375 C 1.785156 0.109375 1.253906 -0.078125 0.890625 -0.453125 C 0.535156 -0.828125 0.359375 -1.300781 0.359375 -1.875 C 0.359375 -2.363281 0.488281 -2.769531 0.75 -3.09375 C 1.007812 -3.414062 1.3125 -3.664062 1.65625 -3.84375 C 2.007812 -4.019531 2.46875 -4.203125 3.03125 -4.390625 C 3.613281 -4.585938 4.039062 -4.765625 4.3125 -4.921875 C 4.59375 -5.085938 4.734375 -5.320312 4.734375 -5.625 L 4.734375 -7.078125 C 4.734375 -7.429688 4.644531 -7.742188 4.46875 -8.015625 C 4.289062 -8.296875 3.988281 -8.4375 3.5625 -8.4375 C 3.226562 -8.4375 2.921875 -8.34375 2.640625 -8.15625 C 3.015625 -8.019531 3.289062 -7.820312 3.46875 -7.5625 C 3.65625 -7.3125 3.75 -7.023438 3.75 -6.703125 C 3.75 -6.273438 3.597656 -5.929688 3.296875 -5.671875 C 2.992188 -5.421875 2.628906 -5.296875 2.203125 -5.296875 C 1.773438 -5.296875 1.4375 -5.425781 1.1875 -5.6875 C 0.945312 -5.957031 0.828125 -6.300781 0.828125 -6.71875 C 0.828125 -7.050781 0.90625 -7.335938 1.0625 -7.578125 C 1.226562 -7.816406 1.488281 -8.035156 1.84375 -8.234375 C 2.457031 -8.585938 3.332031 -8.765625 4.46875 -8.765625 C 5.070312 -8.765625 5.59375 -8.707031 6.03125 -8.59375 C 6.46875 -8.476562 6.84375 -8.257812 7.15625 -7.9375 C 7.375 -7.707031 7.515625 -7.421875 7.578125 -7.078125 C 7.648438 -6.734375 7.6875 -6.253906 7.6875 -5.640625 L 7.6875 -1.234375 C 7.6875 -0.960938 7.707031 -0.773438 7.75 -0.671875 C 7.789062 -0.578125 7.859375 -0.53125 7.953125 -0.53125 C 8.035156 -0.53125 8.117188 -0.550781 8.203125 -0.59375 C 8.285156 -0.644531 8.367188 -0.703125 8.453125 -0.765625 L 8.609375 -0.5 C 8.140625 -0.09375 7.46875 0.109375 6.59375 0.109375 C 5.9375 0.109375 5.472656 0 5.203125 -0.21875 C 4.941406 -0.445312 4.800781 -0.753906 4.78125 -1.140625 C 4.269531 -0.304688 3.503906 0.109375 2.484375 0.109375 Z M 4.125 -1.203125 C 4.351562 -1.203125 4.554688 -1.296875 4.734375 -1.484375 L 4.734375 -4.953125 C 4.640625 -4.785156 4.457031 -4.570312 4.1875 -4.3125 C 3.894531 -4.019531 3.671875 -3.738281 3.515625 -3.46875 C 3.359375 -3.207031 3.28125 -2.847656 3.28125 -2.390625 C 3.28125 -1.597656 3.5625 -1.203125 4.125 -1.203125 Z M 4.125 -1.203125"/></g></defs><g fill="#FFF"><use x="3.908" y="21.347" xmlns:xlink="http://www.w3.org/1999/xlink" xlink:href="#a" xlink:type="simple" xlink:actuate="onLoad" xlink:show="embed"/></g><g fill="#FFF"><use x="14.129" y="21.347" xmlns:xlink="http://www.w3.org/1999/xlink" xlink:href="#b" xlink:type="simple" xlink:actuate="onLoad" xlink:show="embed"/></g><g fill="#FFF"><use x="22.395" y="21.347" xmlns:xlink="http://www.w3.org/1999/xlink" xlink:href="#c" xlink:type="simple" xlink:actuate="onLoad" xlink:show="embed"/></g><g fill="#FFF"><use x="31.088" y="21.347" xmlns:xlink="http://www.w3.org/1999/xlink" xlink:href="#d" xlink:type="simple" xlink:actuate="onLoad" xlink:show="embed"/></g><g fill="#FFF"><use x="36.839" y="21.347" xmlns:xlink="http://www.w3.org/1999/xlink" xlink:href="#e" xlink:type="simple" xlink:actuate="onLoad" xlink:show="embed"/></g><g fill="#FFF"><use x="45.565" y="21.347" xmlns:xlink="http://www.w3.org/1999/xlink" xlink:href="#b" xlink:type="simple" xlink:actuate="onLoad" xlink:show="embed"/></g></svg>